<?xml version="1.0" encoding="UTF-8"?>
<!DOCTYPE svg PUBLIC "-//W3C//DTD SVG 1.1//EN" "http://www.w3.org/Graphics/SVG/1.1/DTD/svg11.dtd">
<!-- Creator: CorelDRAW 2019 (64-Bit) -->
<svg xmlns="http://www.w3.org/2000/svg" xml:space="preserve" width="4.96535in" height="5.42626in" version="1.1" style="shape-rendering:geometricPrecision; text-rendering:geometricPrecision; image-rendering:optimizeQuality; fill-rule:evenodd; clip-rule:evenodd"
viewBox="0 0 4965.35 5426.26"
 xmlns:xlink="http://www.w3.org/1999/xlink"
 xmlns:xodm="http://www.corel.com/coreldraw/odm/2003">
 <defs>
  <style type="text/css">
   <![CDATA[
    .fil5 {fill:none}
    .fil0 {fill:black}
    .fil6 {fill:#1A1A1A}
    .fil1 {fill:#1A1A1A}
    .fil4 {fill:#333333}
    .fil12 {fill:#666666}
    .fil10 {fill:#834F44}
    .fil9 {fill:#9E6454}
    .fil11 {fill:#B3B3B3}
    .fil7 {fill:#BA0000}
    .fil2 {fill:#BA0000}
    .fil8 {fill:#E29D7E}
    .fil13 {fill:white}
    .fil3 {fill:white}
   ]]>
  </style>
 </defs>
 <g id="Layer_x0020_1">
  <metadata id="CorelCorpID_0Corel-Layer"/>
  <circle class="fil0" cx="2482.67" cy="2943.58" r="2482.67"/>
  <path class="fil1" d="M2531.04 304.77c53.12,-29.18 107.05,-52.07 161.94,-67.23 118.3,-32.65 166.99,-50.74 246.8,-155.87 25.68,-33.8 23.49,-65.12 41.76,-76.81 -2.69,4.27 -4.85,9.36 -7.01,15.08 101.03,37.53 258.94,122.11 342.54,251.33 49.1,75.91 118.75,299.48 120.27,422.53 21.17,-4.7 40.07,-6.7 56.02,-4.8l1.35 11.31c-57.56,-14.7 -163.85,35.7 -275.96,76.98 -116.86,43.04 -173.34,50.35 -293.35,48.32 -364.47,-6.31 -739.4,-76.88 -1051.75,-201.23 100.27,-89.08 135.02,-370.4 319.32,-480.37 69.41,-41.42 156.13,-43.95 247.3,-43.03 82.03,0.84 166.96,4.25 235.92,5.81 22.72,0.51 66.6,3.01 59.09,38.58 -76.63,46.17 -153.28,92.33 -229.9,138.5 -18.78,11.28 -21,23.15 -4.17,28.54 6.08,1.32 21.47,-2.61 29.84,-7.62z"/>
  <path class="fil2" d="M1873.64 624.37c40.88,16.28 82.84,31.64 125.7,46.04 70.98,-136.76 108.9,-351.8 248.22,-434.91 47.67,-28.45 125.66,-28.63 182.07,-28.08l10.63 -0.94c63.31,-0.77 128.35,2.18 186.44,4.28 36.19,-21.8 72.39,-43.6 108.57,-65.41 7.51,-35.57 -36.37,-38.07 -59.09,-38.58 -68.96,-1.56 -153.89,-4.97 -235.92,-5.81 -91.17,-0.92 -177.89,1.61 -247.3,43.03 -184.3,109.97 -219.05,391.29 -319.32,480.37z"/>
  <path class="fil3" d="M3308.05 280.68c49.1,75.91 118.75,299.48 120.28,422.53 25.96,-5.76 48.52,-7.46 66.38,-2.91 -36.12,-314.88 -144.82,-576.09 -449.81,-692.24 -60.09,-17.62 -69.61,-4.52 -79.38,21.28 101.03,37.53 258.94,122.11 342.54,251.33z"/>
  <path class="fil4" d="M3425.69 661.47c-106.81,21.85 -312.55,28.6 -395.08,-9.42 -229.35,-105.71 -122.48,-451.43 52.27,-568.33 82.26,45.7 169.94,111.6 225.17,196.96 43.96,67.94 104.38,254.21 117.65,380.79z"/>
  <path class="fil5" d="M1774.46 722.92c425.13,372.14 955.76,426.43 1477.68,262.96 56.39,-17.64 166.14,-51.15 208.06,-85.17 30.52,-24.74 41.48,-53.26 42.4,-78.81 2.26,-63.38 -77.59,-49.38 -152.65,-22.57 -99.3,35.43 -159.3,63.81 -229.36,81.4 -301.63,75.73 -934.34,-49.42 -1256.92,-157.59 -27.53,-10.13 -52.61,-17.11 -89.21,-0.22z"/>
  <path class="fil6" d="M3638.71 863.14c29.62,7.31 58.54,14.81 86.78,22.45 333.66,103.99 548.57,237.61 556.24,370.15 6.02,103.82 -116.12,190.17 -325.25,250.19 -76.16,21.86 -163.87,40.23 -261.13,54.69 -283.63,32.28 -635.95,38.42 -1019.48,11.52 -290.68,-20.39 -565.75,-57.42 -808.41,-105.72 -465.24,-102.42 -782.32,-252.14 -791.7,-398.04 -8.58,-133.4 242,-232.98 633.74,-276.89 -27.84,-22.94 -55.36,-47.07 -82.52,-72.41 9.09,-0.96 18.2,-1.91 27.42,-2.83 540.33,509.87 1222.38,539.05 1877.32,238.91 61.6,-28.21 94.2,-55.61 106.98,-92.02z"/>
  <path class="fil4" d="M3554.28 944.18c47.04,-24.43 73.13,-49.21 84.33,-80.75l-0.34 0.95c368.25,106.34 609.06,248 617.18,388.44 5.53,95.49 -97.35,176.2 -276.6,235.24 -303.55,39.06 -909.77,53.93 -1081.16,-75.35 -57.9,-43.67 -53.86,-105.52 3.63,-146.97 125.56,-90.52 404.58,-18.41 575.77,-152.31 49.54,-38.72 78.68,-92.62 77.19,-169.24z"/>
  <path class="fil7" d="M1110.81 1072.75c-8.57,-133.4 242,-232.98 633.74,-276.89 -30.46,-25.1 -60.55,-51.63 -90.19,-79.6 -455.47,45.12 -749.6,154.93 -739.84,303.54 11.72,178.52 458.66,362.32 1085.46,471.33 -517.91,-102.26 -879.14,-262.49 -889.17,-418.38z"/>
  <path class="fil3" d="M4255.45 1252.82c6.02,103.82 -116.12,190.17 -325.25,250.19 -118.3,33.96 -264.44,59.5 -430.98,75.02 535.07,-35.09 892.17,-151.61 881.42,-315.12 -9.44,-143.8 -301.22,-291 -741.92,-399.81 -0.14,0.43 -0.3,0.85 -0.45,1.27 368.25,106.34 609.06,248 617.18,388.44z"/>
  <path class="fil8" d="M1837.47 1569.91c102.08,88.69 41.52,312.82 249.28,555.05 180.48,210.43 387.55,430.16 733.59,595.76 28.59,13.49 91.25,18.9 146.51,17.74 44.44,-0.94 84.13,-6.13 97.37,-14.81 302.55,-271.27 513.85,-557.3 512.62,-820.76 -62.46,-0.81 -128.44,-1.79 -198.62,-2.93 7.62,153.57 -90.38,231.69 -192.78,306.69 96.86,-162.91 161.69,-315.33 55.49,-411.84 -212.98,153.69 -428.67,208.17 -674.61,84.1 -184.68,-93.16 -220.53,-315.25 -461.59,-253.51 25.96,156.01 70.74,286.3 129.9,426.5 -120.11,-81.35 -289.26,-547.89 -397.17,-482zm1069.42 806.07c127.59,-109.18 254.3,-101.37 316.91,8.02 -84.81,-98.51 -212.84,-74.8 -316.91,-8.02zm218.68 111.5c-9.21,-77.96 -75.13,-71.52 -177.81,-32.63 93.97,-75.83 169.16,-76.57 204.58,-19.97 9.35,14.95 16.3,27.93 9.23,45.03 -7.26,17.46 -22.1,10.94 -36,7.57z"/>
  <path class="fil9" d="M1837.47 1569.91c45.95,39.92 58.94,107.28 78.29,191.38 28.2,90.68 75.11,196.24 169.87,311.46 194.21,236.13 430.92,471.53 815.68,653.05 11.69,5.44 28.5,9.67 48.13,12.81 2.75,0.69 18.91,-0.18 22.93,-0.28 40.54,-51.21 56.1,-65.78 62.9,-89.89 18.08,-64.05 -20.69,-73.47 42.29,-113.47 22.78,-14.48 45.57,-28.97 68.37,-43.45 -6.32,0.1 -13.47,-2.35 -20.37,-4.03 -9.21,-77.96 -75.13,-71.52 -177.81,-32.63 -47.14,10.27 -94.64,17.17 -143.5,11.88 -196.41,-21.22 -440.92,-463.25 -547.89,-617.24 -19.24,-31.46 17.09,-47.91 37.97,-29.21 327.81,198.23 632.33,278.78 870.51,24.98l-0.02 -0.01c-188.57,113.66 -381.79,142.98 -598.5,33.66 -184.68,-93.16 -220.53,-315.25 -461.59,-253.51 25.96,156.01 70.74,286.3 129.9,426.5 -120.11,-81.35 -289.26,-547.89 -397.17,-482z"/>
  <path class="fil7" d="M2901.31 2725.8c-384.76,-181.52 -621.46,-416.92 -815.68,-653.05 -94.76,-115.22 -141.68,-220.78 -169.87,-311.46 23.63,102.74 56.74,230.48 170.99,363.67 180.48,210.43 387.55,430.16 733.59,595.76 25.63,12.09 78.64,17.7 129.15,17.89 -19.65,-3.13 -36.48,-7.37 -48.18,-12.81z"/>
  <path class="fil3" d="M3544.8 1902.47c-27.64,269.36 -232.52,556.1 -524.31,832.4 20.39,-2.54 36.26,-6.33 43.72,-11.23 302.55,-271.27 513.85,-557.3 512.62,-820.76 -10.57,-0.13 -21.26,-0.28 -32.04,-0.42z"/>
  <path class="fil3" d="M3853.19 1628.53l0 75.95c0,104.68 -85.71,192.35 -190.41,190.39 -88.77,-1.67 -177.53,-3.33 -266.3,-5 -36.28,-0.66 -54,-47.58 24.46,-47.58l241.84 0c104.73,0 190.41,-109.06 190.41,-213.75z"/>
  <path class="fil10" d="M1918.12 1969.46c-81.89,-69.9 -256.33,-215.15 -279.52,-263.15 -25.76,-53.31 -4.69,-110.25 43.76,-169.28 -62.8,-9.74 -125.59,-19.47 -188.4,-29.21 10.78,258.82 140.13,445.08 380.05,563.67 16.4,8.11 33.33,15.91 50.77,23.38 26.44,-17.89 33.39,-42.39 32.39,-63.54 -1.66,-35.18 -14.77,-41.18 -39.05,-61.87z"/>
  <path class="fil7" d="M1926.57 2093.62c-181.32,-119.13 -391.32,-322.18 -363.21,-575.05 -23.13,-3.59 -46.26,-7.17 -69.39,-10.76 10.78,258.82 140.13,445.08 380.05,563.67 16.4,8.11 33.33,15.91 50.77,23.38 0.61,-0.41 1.2,-0.83 1.79,-1.25z"/>
  <path class="fil5" d="M2023.07 2246.33c-3.47,244.89 101.3,356.8 232.81,540.46 45.01,62.85 95.8,130.84 157.13,204.35l319.18 -231.13c-261.07,-134.7 -502.87,-303.89 -709.13,-513.68z"/>
  <path class="fil11" d="M1723.7 3554.84c25.64,-324.21 127.27,-648.42 277.49,-972.63 110.99,154.8 221.99,309.61 332.98,464.41 -203.48,169.41 -406.96,338.81 -610.47,508.22z"/>
  <path class="fil11" d="M2781.07 3776.86l-344.65 -677.63 417.67 -286.79c31.66,10.51 86.83,14.69 136.12,13.65 27.87,-0.59 53.86,-2.83 72.63,-6.58l4.47 8.08 -286.24 949.27z"/>
  <polygon class="fil7" points="2170.91,3262.51 2264.14,3509.6 2477.37,3363.27 2369.34,3099.21 "/>
  <path class="fil11" d="M1719.53 4791.79c-8.76,-339.79 -17.5,-679.57 -26.25,-1019.35 144.09,-151.88 288.18,-303.77 432.28,-455.65 80.32,20.02 -241.37,986.26 -406.02,1475z"/>
  <path class="fil3" d="M2239.47 5326.32c-145.22,-305.02 -59.24,-956.78 169.41,-1822.59 0.1,-2.53 0.19,-5.06 0.29,-7.59 24.6,-16.88 49.19,-33.76 73.79,-50.63 87.28,123.58 174.56,247.16 261.84,370.74 -168.44,503.36 -336.88,1006.71 -505.32,1510.07z"/>
  <path class="fil7" d="M2102.27 5396.42c-36.24,-632.12 69.91,-1248.4 244.01,-1857.12 -38.82,26.65 -77.66,53.29 -116.48,79.94 -18.2,-48.25 -36.42,-96.51 -54.62,-144.76 -148.1,631.16 -285.5,1245.93 -412.2,1845.86 106.94,32.35 216.93,57.66 329.44,75.42l9.85 0.66z"/>
  <path class="fil6" d="M1681.77 5361.35l-362.18 -58.42 288.84 46.59 73.34 11.83zm-407.82 -248.69l-284.36 -1185.44 285.25 -376.51 -67.54 -336.23 750.74 -990.18c-17.94,63.86 -28.81,126.95 -11.68,186.93 -21.76,28.22 -42.47,57.3 -62.12,87.22 -424.69,646.31 -368.76,1683.86 -210.8,2804.45l-1.71 -12.11c-28.77,-9.94 -57.3,-20.39 -85.6,-31.35 -102.23,-39.6 -201.19,-85.78 -296.36,-138.01l-15.84 -8.78z"/>
  <path class="fil6" d="M2340.22 5422.24l837.55 -2578.6c41.86,-128.91 84.28,-205.04 128.48,-254.32l201.59 838.23 -274.54 330.05 111.1 318.38 -691.84 1344.56c-2.72,0.17 -5.45,0.36 -8.18,0.54 -53.46,3.43 -107.39,5.18 -161.72,5.18 -47.81,0 -95.31,-1.35 -142.45,-4.02z"/>
  <path class="fil6" d="M2828.3 5402.39l671.04 -1291.39c-44.78,-99.31 -89.55,-198.61 -134.32,-297.92 90.56,-109.03 181.11,-218.08 271.66,-327.11 -38.94,-178.17 -77.89,-356.35 -116.84,-534.52l326.07 176.76 772.91 487.54c-220.83,136.64 -388.71,379.2 -500.09,734.74 -5.84,-41.86 -11.69,-83.73 -17.53,-125.59 -15.58,100.28 -31.15,200.56 -46.73,300.84 -242.88,2.07 -169.5,-674.11 -280.39,-797.39 -15.51,448.58 -55.93,979.92 75.23,1288.24 -300.93,198.8 -647.68,333.8 -1021.01,385.81zm1852.09 -1821.81l0.47 0.25 7.98 -4c-7.03,3.49 -14.01,7.09 -20.94,10.76 4.14,-2.37 8.31,-4.71 12.49,-7.01z"/>
  <path class="fil6" d="M740.02 4711.85c4.71,-223.37 58.23,-418.22 31.48,-530.78 -26.74,146.58 -65.22,243.96 -128.51,370.94 58.52,-323.76 43.69,-564.2 -37.99,-864.57 36.37,217.65 23.52,530.41 -23.94,852.32 -130.17,-154.93 -241.76,-325.98 -331.34,-509.72 -19.47,-39.95 -37.91,-80.5 -55.26,-121.61 -1.91,-4.52 -3.81,-9.06 -5.7,-13.61 -14.11,-33.99 -27.49,-68.38 -40.12,-103.11 77.92,-157.55 161.94,-314.93 254.82,-472.29 290.13,-138.26 580.27,-276.5 870.4,-414.76 -63.29,80.81 -126.57,161.61 -189.85,242.42 24.04,120.2 48.09,240.4 72.13,360.61 -99.01,129.04 -198.02,258.09 -297.03,387.13l271.32 1131.2c-140.63,-91.5 -271.41,-196.88 -390.41,-314.17z"/>
  <path class="fil7" d="M194.46 3908.45c82.83,-178.15 172.77,-354.48 273.26,-524.77 229.2,-109.22 458.41,-218.44 687.6,-327.65 39.51,-50.46 79.02,-100.91 118.54,-151.37 -290.13,138.26 -580.27,276.5 -870.4,414.76 -92.62,156.94 -176.97,313.74 -255.4,470.67 0.19,0.54 0.39,1.08 0.58,1.62 12.63,34.73 26.01,69.11 40.12,103.11 1.89,4.55 3.79,9.09 5.7,13.61l0.01 0.02z"/>
  <path class="fil12" d="M404.57 3494.67c-80.45,132.69 -151.25,266.04 -215.8,400.17l5.69 13.59c17.35,41.11 35.79,81.66 55.26,121.61l0.01 0.02c42.41,-179.01 91.01,-357.65 154.85,-535.39z"/>
  <polygon class="fil7" points="989.59,3927.22 1273.95,5112.66 1289.79,5121.43 1094.74,3933.06 1274.84,3550.71 "/>
  <polygon class="fil7" points="1207.31,3214.48 1274.84,3550.71 1277.4,3261.21 1958.05,2224.31 1274.8,3125.47 "/>
  <polygon class="fil12" points="1135.34,3846.86 1342.02,3574.08 1278.76,3259.15 1277.4,3261.21 1274.84,3550.71 "/>
  <path class="fil7" d="M2199.1 2708.73c-74.94,-122.5 -127.02,-237.37 -130.64,-417.2 -15.22,-14.83 -30.35,-29.89 -45.39,-45.2 -2.95,208.37 72.46,320.46 176.03,462.4z"/>
  <path class="fil12" d="M1671.75 5290.8c-95.04,-677.07 -152.3,-1323.4 -88.13,-1870.86l-300.94 612.43 303.47 1227.08c28.3,10.96 56.83,21.42 85.6,31.35z"/>
  <path class="fil13" d="M2226.76 3023.46c-154.67,166.3 -309.33,332.59 -464,498.89 190.47,-158.57 380.94,-317.15 571.41,-475.71 -110.99,-154.8 -221.99,-309.61 -332.98,-464.41 -1.24,2.68 -2.48,5.35 -3.71,8.04 77.73,148.44 158.02,304.85 229.28,433.2z"/>
  <path class="fil3" d="M3067.3 2827.59c-366.13,167.5 -387.71,524.54 -286.24,949.27l286.24 -949.27z"/>
  <path class="fil11" d="M2367.96 4942.35c-50.18,-306.17 33.59,-777.52 195,-1383.57 -26.67,-37.75 -53.33,-75.52 -80,-113.27 -24.59,16.88 -49.19,33.76 -73.79,50.63 -0.1,2.53 -0.19,5.06 -0.29,7.59 -228.64,865.81 -314.63,1517.57 -169.41,1822.59 42.83,-127.99 85.65,-255.98 128.48,-383.97z"/>
  <path class="fil3" d="M3157.36 3745.92l67.28 394.33 -580.28 1280.83 0.01 0c2.72,-0.18 5.45,-0.37 8.18,-0.54l691.84 -1344.56 -111.1 -318.38 274.54 -330.05 -201.59 -838.23 113.96 773.97 -262.85 382.63z"/>
  <path class="fil12" d="M3164.05 2885.89l-309.2 2070.6 369.79 -816.23 -67.28 -394.33 262.85 -382.63 -113.96 -773.97c-44.2,49.28 -86.62,125.41 -128.48,254.32 -4.57,14.09 -9.15,28.16 -13.71,42.25z"/>
  <path class="fil3" d="M3519.85 2951.45l1161.02 629.39c24.26,-12.34 49.09,-23.51 74.5,-33.54 -411.84,-198.62 -823.68,-397.24 -1235.52,-595.85z"/>
  <path class="fil12" d="M4680.87 3580.84l-1161.02 -629.39 1076.23 678.87c27.42,-18.18 55.69,-34.67 84.79,-49.48z"/>
  <path class="fil6" d="M4112.36 4456.34l2.19 -13.51c142.8,-340.65 348.64,-561.29 679.33,-641.56 -12.59,45.43 -23.77,89.42 -33.69,132.15 -4.93,11.31 -9.94,22.59 -15.02,33.81 -152.19,335.81 -376.94,631.74 -654.23,867.76 -7.1,-118.46 -2.8,-228.9 21.43,-378.65z"/>
  <path class="fil3" d="M4109.43 4415.44c147.32,-351.42 375.13,-603.03 726.36,-678.25l0.01 -0.02c4.83,-14.33 9.54,-28.71 14.12,-43.15 -349.81,74.8 -584.33,306.17 -731.18,656.47 -3.4,22.06 -6.5,43.7 -9.3,64.96z"/>
  <path class="fil12" d="M4112.36 4456.34c142.8,-340.65 340.6,-561.66 671.29,-641.92 -14.61,52.67 -27.29,103.39 -38.34,152.47 33.82,-74.66 64.07,-151.31 90.48,-229.7 -351.22,75.22 -579.04,326.83 -726.36,678.25 -12.73,96.2 -19.55,184.34 -21.31,266.37 3.94,-69.99 11.8,-144.76 24.23,-225.46z"/>
 </g>
</svg>
